<mxfile host="Electron" modified="2024-03-03T12:25:12.943Z" agent="Mozilla/5.0 (Macintosh; Intel Mac OS X 10_15_7) AppleWebKit/537.36 (KHTML, like Gecko) draw.io/21.2.1 Chrome/112.0.5615.87 Electron/24.1.2 Safari/537.36" etag="AfA-0o0aQtnEkccNE2kI" version="21.2.1" type="device">
  <diagram name="第 1 页" id="hY5lPLh8MROrQLrtVdxQ">
    <mxGraphModel dx="1687" dy="1005" grid="1" gridSize="10" guides="1" tooltips="1" connect="1" arrows="1" fold="1" page="1" pageScale="1" pageWidth="1169" pageHeight="827" math="0" shadow="0">
      <root>
        <mxCell id="0" />
        <mxCell id="1" parent="0" />
        <mxCell id="tqz4QkiW2Z2kcYY2cikK-38" value="" style="rounded=0;whiteSpace=wrap;html=1;strokeColor=none;fontFamily=Helvetica;fontSize=11;fontColor=default;" vertex="1" parent="1">
          <mxGeometry x="10" y="285" width="1110" height="455" as="geometry" />
        </mxCell>
        <mxCell id="tqz4QkiW2Z2kcYY2cikK-27" value="&lt;font face=&quot;Comic Sans MS&quot; style=&quot;font-size: 18px;&quot;&gt;1. 按照协议封装请求对象&lt;br&gt;2. 将请求放入异步发送队列&lt;br&gt;3. 将请求的 UUID 放入 map 中，&lt;br&gt;以一一对应请求和响应&lt;br&gt;4. 同步等待 3 秒获取 map 中的结果&lt;br&gt;&lt;/font&gt;" style="text;html=1;strokeColor=default;fillColor=none;align=left;verticalAlign=top;whiteSpace=wrap;rounded=0;fontSize=11;fontFamily=Helvetica;fontColor=default;" vertex="1" parent="1">
          <mxGeometry x="40" y="520" width="310" height="120" as="geometry" />
        </mxCell>
        <mxCell id="tqz4QkiW2Z2kcYY2cikK-15" style="edgeStyle=none;shape=connector;rounded=0;orthogonalLoop=1;jettySize=auto;html=1;exitX=1;exitY=0.5;exitDx=0;exitDy=0;labelBackgroundColor=default;strokeColor=default;strokeWidth=2;fontFamily=Helvetica;fontSize=11;fontColor=default;endArrow=classic;" edge="1" parent="1" source="tqz4QkiW2Z2kcYY2cikK-2">
          <mxGeometry relative="1" as="geometry">
            <mxPoint x="700" y="660" as="targetPoint" />
          </mxGeometry>
        </mxCell>
        <mxCell id="tqz4QkiW2Z2kcYY2cikK-16" value="&lt;b&gt;&lt;font style=&quot;font-size: 16px;&quot;&gt;注册到缓存中&lt;/font&gt;&lt;/b&gt;" style="edgeLabel;html=1;align=center;verticalAlign=middle;resizable=0;points=[];fontSize=11;fontFamily=Helvetica;fontColor=default;" vertex="1" connectable="0" parent="tqz4QkiW2Z2kcYY2cikK-15">
          <mxGeometry x="-0.1593" y="-1" relative="1" as="geometry">
            <mxPoint x="25" y="-25" as="offset" />
          </mxGeometry>
        </mxCell>
        <mxCell id="tqz4QkiW2Z2kcYY2cikK-2" value="&lt;font face=&quot;Comic Sans MS&quot;&gt;&lt;span style=&quot;font-size: 18px;&quot;&gt;&lt;b&gt;DataService&lt;/b&gt;&lt;/span&gt;&lt;/font&gt;" style="rounded=1;whiteSpace=wrap;html=1;fillColor=#d5e8d4;strokeColor=#82b366;sketch=1;curveFitting=1;jiggle=2;" vertex="1" parent="1">
          <mxGeometry x="360.0000000000002" y="549.9999999999999" width="160" height="60" as="geometry" />
        </mxCell>
        <mxCell id="tqz4QkiW2Z2kcYY2cikK-3" value="&lt;b style=&quot;border-color: var(--border-color); font-size: 18px;&quot;&gt;&lt;font face=&quot;Comic Sans MS&quot;&gt;key: DataService value: DataServiceImpl&lt;/font&gt;&lt;/b&gt;" style="rounded=1;whiteSpace=wrap;html=1;fillColor=#e1d5e7;strokeColor=#9673a6;sketch=1;curveFitting=1;jiggle=2;" vertex="1" parent="1">
          <mxGeometry x="585" y="660" width="435" height="60" as="geometry" />
        </mxCell>
        <mxCell id="tqz4QkiW2Z2kcYY2cikK-13" style="edgeStyle=none;shape=connector;rounded=0;orthogonalLoop=1;jettySize=auto;html=1;labelBackgroundColor=default;strokeColor=default;strokeWidth=2;fontFamily=Helvetica;fontSize=11;fontColor=default;endArrow=block;endFill=0;dashed=1;" edge="1" parent="1" source="tqz4QkiW2Z2kcYY2cikK-4" target="tqz4QkiW2Z2kcYY2cikK-2">
          <mxGeometry relative="1" as="geometry" />
        </mxCell>
        <mxCell id="tqz4QkiW2Z2kcYY2cikK-4" value="&lt;font face=&quot;Comic Sans MS&quot;&gt;&lt;span style=&quot;font-size: 18px;&quot;&gt;&lt;b&gt;DataServiceImpl&lt;/b&gt;&lt;/span&gt;&lt;/font&gt;" style="rounded=1;whiteSpace=wrap;html=1;fillColor=#dae8fc;strokeColor=#6c8ebf;sketch=1;curveFitting=1;jiggle=2;" vertex="1" parent="1">
          <mxGeometry x="360" y="660" width="160" height="60" as="geometry" />
        </mxCell>
        <mxCell id="tqz4QkiW2Z2kcYY2cikK-24" style="edgeStyle=none;shape=connector;rounded=0;orthogonalLoop=1;jettySize=auto;html=1;exitX=1;exitY=1;exitDx=0;exitDy=0;exitPerimeter=0;labelBackgroundColor=default;strokeColor=default;strokeWidth=2;fontFamily=Helvetica;fontSize=11;fontColor=default;endArrow=classic;entryX=0;entryY=0.5;entryDx=0;entryDy=0;" edge="1" parent="1" source="tqz4QkiW2Z2kcYY2cikK-7" target="tqz4QkiW2Z2kcYY2cikK-23">
          <mxGeometry relative="1" as="geometry">
            <mxPoint x="385" y="420" as="targetPoint" />
          </mxGeometry>
        </mxCell>
        <mxCell id="tqz4QkiW2Z2kcYY2cikK-25" value="&lt;b&gt;&lt;font style=&quot;font-size: 16px;&quot;&gt;发送请求&lt;/font&gt;&lt;/b&gt;" style="edgeLabel;html=1;align=center;verticalAlign=middle;resizable=0;points=[];fontSize=11;fontFamily=Helvetica;fontColor=default;" vertex="1" connectable="0" parent="tqz4QkiW2Z2kcYY2cikK-24">
          <mxGeometry x="-0.2706" y="-2" relative="1" as="geometry">
            <mxPoint x="43" y="-3" as="offset" />
          </mxGeometry>
        </mxCell>
        <mxCell id="tqz4QkiW2Z2kcYY2cikK-35" style="edgeStyle=none;shape=connector;rounded=0;orthogonalLoop=1;jettySize=auto;html=1;exitX=0;exitY=0.3333333333333333;exitDx=0;exitDy=0;exitPerimeter=0;entryX=1;entryY=0.5;entryDx=0;entryDy=0;labelBackgroundColor=default;strokeColor=default;strokeWidth=2;fontFamily=Helvetica;fontSize=11;fontColor=default;endArrow=classic;" edge="1" parent="1" source="tqz4QkiW2Z2kcYY2cikK-7" target="tqz4QkiW2Z2kcYY2cikK-34">
          <mxGeometry relative="1" as="geometry" />
        </mxCell>
        <mxCell id="tqz4QkiW2Z2kcYY2cikK-7" value="&lt;font style=&quot;font-size: 16px;&quot;&gt;客户端&lt;/font&gt;" style="shape=umlActor;verticalLabelPosition=bottom;verticalAlign=top;html=1;outlineConnect=0;" vertex="1" parent="1">
          <mxGeometry x="220" y="370" width="30" height="60" as="geometry" />
        </mxCell>
        <mxCell id="tqz4QkiW2Z2kcYY2cikK-11" style="rounded=0;orthogonalLoop=1;jettySize=auto;html=1;entryX=1;entryY=0;entryDx=0;entryDy=0;strokeWidth=2;exitX=0.145;exitY=1;exitDx=0;exitDy=-4.35;exitPerimeter=0;" edge="1" parent="1" source="tqz4QkiW2Z2kcYY2cikK-8" target="tqz4QkiW2Z2kcYY2cikK-2">
          <mxGeometry relative="1" as="geometry" />
        </mxCell>
        <mxCell id="tqz4QkiW2Z2kcYY2cikK-12" value="&lt;font style=&quot;font-size: 16px;&quot;&gt;&lt;b&gt;实现&lt;/b&gt;&lt;/font&gt;" style="edgeLabel;html=1;align=center;verticalAlign=middle;resizable=0;points=[];fontSize=11;fontFamily=Helvetica;fontColor=default;" vertex="1" connectable="0" parent="tqz4QkiW2Z2kcYY2cikK-11">
          <mxGeometry x="-0.1869" y="-3" relative="1" as="geometry">
            <mxPoint y="-11" as="offset" />
          </mxGeometry>
        </mxCell>
        <mxCell id="tqz4QkiW2Z2kcYY2cikK-19" style="edgeStyle=none;shape=connector;rounded=0;orthogonalLoop=1;jettySize=auto;html=1;entryX=0;entryY=0.5;entryDx=0;entryDy=0;labelBackgroundColor=default;strokeColor=default;strokeWidth=2;fontFamily=Helvetica;fontSize=11;fontColor=default;endArrow=classic;" edge="1" parent="1" source="tqz4QkiW2Z2kcYY2cikK-8" target="tqz4QkiW2Z2kcYY2cikK-18">
          <mxGeometry relative="1" as="geometry" />
        </mxCell>
        <mxCell id="tqz4QkiW2Z2kcYY2cikK-20" style="edgeStyle=none;shape=connector;rounded=0;orthogonalLoop=1;jettySize=auto;html=1;exitX=0;exitY=0;exitDx=0;exitDy=27.5;exitPerimeter=0;entryX=1;entryY=0.3333333333333333;entryDx=0;entryDy=0;entryPerimeter=0;labelBackgroundColor=default;strokeColor=default;strokeWidth=2;fontFamily=Helvetica;fontSize=11;fontColor=default;endArrow=classic;" edge="1" parent="1" source="tqz4QkiW2Z2kcYY2cikK-8" target="tqz4QkiW2Z2kcYY2cikK-7">
          <mxGeometry relative="1" as="geometry" />
        </mxCell>
        <mxCell id="tqz4QkiW2Z2kcYY2cikK-21" value="&lt;font style=&quot;font-size: 16px;&quot;&gt;&lt;b&gt;返回结果&lt;/b&gt;&lt;/font&gt;" style="edgeLabel;html=1;align=center;verticalAlign=middle;resizable=0;points=[];fontSize=11;fontFamily=Helvetica;fontColor=default;" vertex="1" connectable="0" parent="tqz4QkiW2Z2kcYY2cikK-20">
          <mxGeometry x="0.0819" y="-2" relative="1" as="geometry">
            <mxPoint y="-12" as="offset" />
          </mxGeometry>
        </mxCell>
        <mxCell id="tqz4QkiW2Z2kcYY2cikK-8" value="&lt;font style=&quot;font-size: 16px;&quot;&gt;服务端&lt;/font&gt;" style="shape=cylinder3;whiteSpace=wrap;html=1;boundedLbl=1;backgroundOutline=1;size=15;" vertex="1" parent="1">
          <mxGeometry x="700" y="360" width="60" height="80" as="geometry" />
        </mxCell>
        <mxCell id="tqz4QkiW2Z2kcYY2cikK-18" value="&lt;font face=&quot;Comic Sans MS&quot;&gt;&lt;span style=&quot;font-size: 18px;&quot;&gt;&lt;b&gt;ServiceHandler&lt;/b&gt;&lt;/span&gt;&lt;/font&gt;" style="rounded=1;whiteSpace=wrap;html=1;fillColor=#dae8fc;strokeColor=#6c8ebf;sketch=1;curveFitting=1;jiggle=2;" vertex="1" parent="1">
          <mxGeometry x="800" y="370" width="160" height="60" as="geometry" />
        </mxCell>
        <mxCell id="tqz4QkiW2Z2kcYY2cikK-33" style="edgeStyle=none;shape=connector;rounded=0;orthogonalLoop=1;jettySize=auto;html=1;exitX=0;exitY=1;exitDx=0;exitDy=0;entryX=1;entryY=0;entryDx=0;entryDy=0;labelBackgroundColor=default;strokeColor=default;strokeWidth=2;fontFamily=Helvetica;fontSize=11;fontColor=default;endArrow=classic;" edge="1" parent="1" source="tqz4QkiW2Z2kcYY2cikK-23" target="tqz4QkiW2Z2kcYY2cikK-27">
          <mxGeometry relative="1" as="geometry" />
        </mxCell>
        <mxCell id="tqz4QkiW2Z2kcYY2cikK-23" value="&lt;font face=&quot;Comic Sans MS&quot;&gt;&lt;span style=&quot;font-size: 18px;&quot;&gt;&lt;b&gt;Proxy&lt;/b&gt;&lt;/span&gt;&lt;/font&gt;" style="rounded=1;whiteSpace=wrap;html=1;fillColor=#dae8fc;strokeColor=#6c8ebf;sketch=1;curveFitting=1;jiggle=2;" vertex="1" parent="1">
          <mxGeometry x="385" y="420" width="110" height="60" as="geometry" />
        </mxCell>
        <mxCell id="tqz4QkiW2Z2kcYY2cikK-28" style="edgeStyle=none;shape=connector;rounded=0;orthogonalLoop=1;jettySize=auto;html=1;exitX=0.5;exitY=1;exitDx=0;exitDy=0;entryX=0.5;entryY=0;entryDx=0;entryDy=0;labelBackgroundColor=default;strokeColor=default;strokeWidth=2;fontFamily=Helvetica;fontSize=11;fontColor=default;endArrow=classic;" edge="1" parent="1" source="tqz4QkiW2Z2kcYY2cikK-23" target="tqz4QkiW2Z2kcYY2cikK-2">
          <mxGeometry relative="1" as="geometry" />
        </mxCell>
        <mxCell id="tqz4QkiW2Z2kcYY2cikK-30" value="&lt;font style=&quot;font-size: 16px;&quot;&gt;&lt;b&gt;代理&lt;/b&gt;&lt;/font&gt;" style="edgeLabel;html=1;align=center;verticalAlign=middle;resizable=0;points=[];fontSize=11;fontFamily=Helvetica;fontColor=default;" vertex="1" connectable="0" parent="tqz4QkiW2Z2kcYY2cikK-28">
          <mxGeometry x="-0.0222" y="3" relative="1" as="geometry">
            <mxPoint x="-3" y="-14" as="offset" />
          </mxGeometry>
        </mxCell>
        <mxCell id="tqz4QkiW2Z2kcYY2cikK-31" value="&lt;font face=&quot;Comic Sans MS&quot; style=&quot;font-size: 18px;&quot;&gt;1. 根据 Message 中的接口名、方法名、参数，来执行对应的方法&lt;br&gt;2. 响应结果&lt;br&gt;&lt;/font&gt;" style="text;html=1;strokeColor=default;fillColor=none;align=left;verticalAlign=top;whiteSpace=wrap;rounded=0;fontSize=11;fontFamily=Helvetica;fontColor=default;" vertex="1" parent="1">
          <mxGeometry x="800" y="430" width="310" height="80" as="geometry" />
        </mxCell>
        <mxCell id="tqz4QkiW2Z2kcYY2cikK-34" value="&lt;font face=&quot;Comic Sans MS&quot;&gt;&lt;span style=&quot;font-size: 18px;&quot;&gt;&lt;b&gt;ClientHandler&lt;/b&gt;&lt;/span&gt;&lt;/font&gt;" style="rounded=1;whiteSpace=wrap;html=1;fillColor=#dae8fc;strokeColor=#6c8ebf;sketch=1;curveFitting=1;jiggle=2;" vertex="1" parent="1">
          <mxGeometry x="20" y="360" width="160" height="60" as="geometry" />
        </mxCell>
        <mxCell id="tqz4QkiW2Z2kcYY2cikK-36" value="&lt;font face=&quot;Comic Sans MS&quot; style=&quot;font-size: 18px;&quot;&gt;接收响应结果，根据 UUID 修改 map &lt;br&gt;中的 response，供同步等待响应进行获取结果&lt;br&gt;&lt;/font&gt;" style="text;html=1;strokeColor=default;fillColor=none;align=left;verticalAlign=top;whiteSpace=wrap;rounded=0;fontSize=11;fontFamily=Helvetica;fontColor=default;" vertex="1" parent="1">
          <mxGeometry x="20" y="310" width="380" height="50" as="geometry" />
        </mxCell>
        <mxCell id="tqz4QkiW2Z2kcYY2cikK-37" value="&lt;font face=&quot;Comic Sans MS&quot; style=&quot;font-size: 18px;&quot;&gt;客户端启动线程，异步消费阻塞队列中的请求&lt;br&gt;&lt;/font&gt;" style="text;html=1;strokeColor=default;fillColor=none;align=left;verticalAlign=top;whiteSpace=wrap;rounded=0;fontSize=11;fontFamily=Helvetica;fontColor=default;" vertex="1" parent="1">
          <mxGeometry x="40" y="650" width="270" height="50" as="geometry" />
        </mxCell>
      </root>
    </mxGraphModel>
  </diagram>
</mxfile>
